<svg width="49" height="17" viewBox="0 0 49 17" fill="none" xmlns="http://www.w3.org/2000/svg">
<path d="M0.599609 13.5V0.817383H2.18164V12.0762H8.29883V13.5H0.599609ZM14.0469 13.667C13.1562 13.667 12.3828 13.4707 11.7266 13.0781C11.0762 12.6797 10.5723 12.1143 10.2148 11.3818C9.86328 10.6494 9.6875 9.78223 9.6875 8.78027V8.7627C9.6875 7.74902 9.86328 6.87891 10.2148 6.15234C10.5723 5.41992 11.0762 4.85742 11.7266 4.46484C12.3828 4.07227 13.1562 3.87598 14.0469 3.87598C14.9492 3.87598 15.7256 4.07227 16.376 4.46484C17.0264 4.85742 17.5273 5.41992 17.8789 6.15234C18.2363 6.87891 18.415 7.74902 18.415 8.7627V8.78027C18.415 9.78809 18.2363 10.6582 17.8789 11.3906C17.5273 12.1172 17.0264 12.6797 16.376 13.0781C15.7256 13.4707 14.9492 13.667 14.0469 13.667ZM14.0469 12.3135C14.6445 12.3135 15.1514 12.1729 15.5674 11.8916C15.9834 11.6104 16.2998 11.209 16.5166 10.6875C16.7393 10.1602 16.8506 9.52441 16.8506 8.78027V8.7627C16.8506 8.0127 16.7393 7.37402 16.5166 6.84668C16.2998 6.31934 15.9834 5.91797 15.5674 5.64258C15.1514 5.36719 14.6445 5.22949 14.0469 5.22949C13.4551 5.22949 12.9512 5.36719 12.5352 5.64258C12.1191 5.91797 11.7998 6.31934 11.5771 6.84668C11.3604 7.37402 11.252 8.0127 11.252 8.7627V8.78027C11.252 9.52441 11.3604 10.1602 11.5771 10.6875C11.7998 11.209 12.1191 11.6104 12.5352 11.8916C12.9512 12.1729 13.4551 12.3135 14.0469 12.3135ZM24.6465 16.8398C23.8848 16.8398 23.2197 16.7314 22.6514 16.5146C22.083 16.3037 21.6289 16.002 21.2891 15.6094C20.9551 15.2227 20.7471 14.7715 20.665 14.2559L20.6738 14.2471H22.2559L22.2646 14.2559C22.3525 14.6133 22.6016 14.9062 23.0117 15.1348C23.4219 15.3691 23.9668 15.4863 24.6465 15.4863C25.4902 15.4863 26.1494 15.293 26.624 14.9062C27.1045 14.5195 27.3447 13.9775 27.3447 13.2803V11.3994H27.2041C27.0049 11.7451 26.7559 12.041 26.457 12.2871C26.1582 12.5332 25.8213 12.7207 25.4463 12.8496C25.0713 12.9727 24.667 13.0342 24.2334 13.0342C23.4248 13.0342 22.7217 12.8408 22.124 12.4541C21.5322 12.0615 21.0752 11.5225 20.7529 10.8369C20.4307 10.1514 20.2695 9.36328 20.2695 8.47266V8.45508C20.2695 7.57031 20.4307 6.78516 20.7529 6.09961C21.0811 5.4082 21.5439 4.86621 22.1416 4.47363C22.7393 4.0752 23.4482 3.87598 24.2686 3.87598C24.7139 3.87598 25.124 3.94629 25.499 4.08691C25.874 4.22754 26.2051 4.42676 26.4922 4.68457C26.7852 4.94238 27.0283 5.25 27.2217 5.60742H27.3271V4.04297H28.8564V13.3594C28.8564 14.0625 28.6836 14.6748 28.3379 15.1963C27.998 15.7178 27.5117 16.1221 26.8789 16.4092C26.2461 16.6963 25.502 16.8398 24.6465 16.8398ZM24.5674 11.6807C25.1533 11.6807 25.6543 11.5459 26.0703 11.2764C26.4863 11.001 26.8057 10.623 27.0283 10.1426C27.2568 9.66211 27.3711 9.10547 27.3711 8.47266V8.45508C27.3711 7.82812 27.2568 7.27148 27.0283 6.78516C26.8057 6.29883 26.4863 5.91797 26.0703 5.64258C25.6543 5.36719 25.1533 5.22949 24.5674 5.22949C23.9873 5.22949 23.4922 5.36719 23.082 5.64258C22.6777 5.91797 22.3672 6.29883 22.1504 6.78516C21.9395 7.27148 21.834 7.82812 21.834 8.45508V8.47266C21.834 9.10547 21.9395 9.66211 22.1504 10.1426C22.3672 10.623 22.6777 11.001 23.082 11.2764C23.4922 11.5459 23.9873 11.6807 24.5674 11.6807ZM36.7051 13.5V4.04297H38.2344V13.5H36.7051ZM37.4785 2.22363C37.1914 2.22363 36.9453 2.12109 36.7402 1.91602C36.5352 1.70508 36.4326 1.45898 36.4326 1.17773C36.4326 0.884766 36.5352 0.635742 36.7402 0.430664C36.9453 0.225586 37.1914 0.123047 37.4785 0.123047C37.7715 0.123047 38.0205 0.225586 38.2256 0.430664C38.4307 0.635742 38.5332 0.884766 38.5332 1.17773C38.5332 1.45898 38.4307 1.70508 38.2256 1.91602C38.0205 2.12109 37.7715 2.22363 37.4785 2.22363ZM41.082 13.5V4.04297H42.6113V5.45801H42.7432C42.9834 4.95996 43.3291 4.57324 43.7803 4.29785C44.2373 4.0166 44.8145 3.87598 45.5117 3.87598C46.5723 3.87598 47.3867 4.18066 47.9551 4.79004C48.5293 5.39355 48.8164 6.25488 48.8164 7.37402V13.5H47.2871V7.74316C47.2871 6.8877 47.1055 6.25488 46.7422 5.84473C46.3848 5.43457 45.8281 5.22949 45.0723 5.22949C44.5742 5.22949 44.1406 5.33789 43.7715 5.55469C43.4023 5.77148 43.1152 6.0791 42.9102 6.47754C42.7109 6.87012 42.6113 7.34473 42.6113 7.90137V13.5H41.082Z" fill="white"/>
</svg>
