<svg width="188" height="42" viewBox="0 0 188 42" fill="none" xmlns="http://www.w3.org/2000/svg">
<rect x="0.5" y="0.5" width="187" height="41" rx="20.5" stroke="url(#paint0_linear_1107_53615)"/>
<path d="M21.7568 27.7988C20.8311 27.7988 20.0225 27.6494 19.3311 27.3506C18.6455 27.0459 18.1006 26.6299 17.6963 26.1025C17.2979 25.5693 17.0664 24.96 17.002 24.2744L16.9932 24.1689H18.5752L18.584 24.2744C18.625 24.6963 18.7861 25.0625 19.0674 25.373C19.3545 25.6777 19.7354 25.915 20.21 26.085C20.6904 26.2549 21.2354 26.3398 21.8447 26.3398C22.4189 26.3398 22.9287 26.249 23.374 26.0674C23.8252 25.8799 24.1797 25.6221 24.4375 25.2939C24.6953 24.9658 24.8242 24.5879 24.8242 24.1602V24.1514C24.8242 23.624 24.6309 23.1816 24.2441 22.8242C23.8574 22.4609 23.2275 22.1826 22.3545 21.9893L20.9482 21.6816C19.6768 21.4004 18.751 20.9668 18.1709 20.3809C17.5967 19.7891 17.3096 19.0332 17.3096 18.1133V18.1045C17.3154 17.4014 17.5059 16.7803 17.8809 16.2412C18.2617 15.7021 18.7861 15.2803 19.4541 14.9756C20.1279 14.6709 20.9014 14.5186 21.7744 14.5186C22.6182 14.5186 23.3652 14.6709 24.0156 14.9756C24.666 15.2744 25.1816 15.6816 25.5625 16.1973C25.9492 16.707 26.1631 17.2783 26.2041 17.9111L26.2129 18.0342H24.6309L24.6133 17.9199C24.5547 17.5449 24.4023 17.2109 24.1562 16.918C23.9102 16.625 23.582 16.3936 23.1719 16.2236C22.7617 16.0537 22.2812 15.9717 21.7305 15.9775C21.2031 15.9775 20.7285 16.0625 20.3066 16.2324C19.8848 16.3965 19.5479 16.6309 19.2959 16.9355C19.0498 17.2402 18.9268 17.6152 18.9268 18.0605V18.0693C18.9268 18.5732 19.1143 18.998 19.4893 19.3438C19.8643 19.6895 20.4824 19.9561 21.3438 20.1436L22.75 20.46C23.6348 20.6533 24.3467 20.9053 24.8857 21.2158C25.4248 21.5264 25.8174 21.9072 26.0635 22.3584C26.3154 22.8037 26.4414 23.3311 26.4414 23.9404V23.9492C26.4414 24.7402 26.248 25.4229 25.8613 25.9971C25.4746 26.5713 24.9297 27.0166 24.2266 27.333C23.5234 27.6436 22.7002 27.7988 21.7568 27.7988ZM28.8848 27.5V18.043H30.4141V27.5H28.8848ZM29.6582 16.2236C29.3711 16.2236 29.125 16.1211 28.9199 15.916C28.7148 15.7051 28.6123 15.459 28.6123 15.1777C28.6123 14.8848 28.7148 14.6357 28.9199 14.4307C29.125 14.2256 29.3711 14.123 29.6582 14.123C29.9512 14.123 30.2002 14.2256 30.4053 14.4307C30.6104 14.6357 30.7129 14.8848 30.7129 15.1777C30.7129 15.459 30.6104 15.7051 30.4053 15.916C30.2002 16.1211 29.9512 16.2236 29.6582 16.2236ZM37.1641 30.8398C36.4023 30.8398 35.7373 30.7314 35.1689 30.5146C34.6006 30.3037 34.1465 30.002 33.8066 29.6094C33.4727 29.2227 33.2646 28.7715 33.1826 28.2559L33.1914 28.2471H34.7734L34.7822 28.2559C34.8701 28.6133 35.1191 28.9062 35.5293 29.1348C35.9395 29.3691 36.4844 29.4863 37.1641 29.4863C38.0078 29.4863 38.667 29.293 39.1416 28.9062C39.6221 28.5195 39.8623 27.9775 39.8623 27.2803V25.3994H39.7217C39.5225 25.7451 39.2734 26.041 38.9746 26.2871C38.6758 26.5332 38.3389 26.7207 37.9639 26.8496C37.5889 26.9727 37.1846 27.0342 36.751 27.0342C35.9424 27.0342 35.2393 26.8408 34.6416 26.4541C34.0498 26.0615 33.5928 25.5225 33.2705 24.8369C32.9482 24.1514 32.7871 23.3633 32.7871 22.4727V22.4551C32.7871 21.5703 32.9482 20.7852 33.2705 20.0996C33.5986 19.4082 34.0615 18.8662 34.6592 18.4736C35.2568 18.0752 35.9658 17.876 36.7861 17.876C37.2314 17.876 37.6416 17.9463 38.0166 18.0869C38.3916 18.2275 38.7227 18.4268 39.0098 18.6846C39.3027 18.9424 39.5459 19.25 39.7393 19.6074H39.8447V18.043H41.374V27.3594C41.374 28.0625 41.2012 28.6748 40.8555 29.1963C40.5156 29.7178 40.0293 30.1221 39.3965 30.4092C38.7637 30.6963 38.0195 30.8398 37.1641 30.8398ZM37.085 25.6807C37.6709 25.6807 38.1719 25.5459 38.5879 25.2764C39.0039 25.001 39.3232 24.623 39.5459 24.1426C39.7744 23.6621 39.8887 23.1055 39.8887 22.4727V22.4551C39.8887 21.8281 39.7744 21.2715 39.5459 20.7852C39.3232 20.2988 39.0039 19.918 38.5879 19.6426C38.1719 19.3672 37.6709 19.2295 37.085 19.2295C36.5049 19.2295 36.0098 19.3672 35.5996 19.6426C35.1953 19.918 34.8848 20.2988 34.668 20.7852C34.457 21.2715 34.3516 21.8281 34.3516 22.4551V22.4727C34.3516 23.1055 34.457 23.6621 34.668 24.1426C34.8848 24.623 35.1953 25.001 35.5996 25.2764C36.0098 25.5459 36.5049 25.6807 37.085 25.6807ZM44.1777 27.5V18.043H45.707V19.458H45.8389C46.0791 18.96 46.4248 18.5732 46.876 18.2979C47.333 18.0166 47.9102 17.876 48.6074 17.876C49.668 17.876 50.4824 18.1807 51.0508 18.79C51.625 19.3936 51.9121 20.2549 51.9121 21.374V27.5H50.3828V21.7432C50.3828 20.8877 50.2012 20.2549 49.8379 19.8447C49.4805 19.4346 48.9238 19.2295 48.168 19.2295C47.6699 19.2295 47.2363 19.3379 46.8672 19.5547C46.498 19.7715 46.2109 20.0791 46.0059 20.4775C45.8066 20.8701 45.707 21.3447 45.707 21.9014V27.5H44.1777ZM62.8193 27.667C62.1045 27.667 61.5039 27.5322 61.0176 27.2627C60.5312 26.9873 60.165 26.5889 59.9189 26.0674C59.6787 25.54 59.5586 24.9072 59.5586 24.1689V18.043H61.0879V23.7998C61.0879 24.6436 61.252 25.2734 61.5801 25.6895C61.9141 26.1055 62.459 26.3135 63.2148 26.3135C63.625 26.3135 63.9883 26.252 64.3047 26.1289C64.627 26.0059 64.8965 25.8301 65.1133 25.6016C65.3301 25.3672 65.4912 25.0859 65.5967 24.7578C65.708 24.4238 65.7637 24.0518 65.7637 23.6416V18.043H67.293V27.5H65.7637V26.0938H65.6318C65.4736 26.4219 65.2627 26.7061 64.999 26.9463C64.7354 27.1807 64.4219 27.3594 64.0586 27.4824C63.6953 27.6055 63.2822 27.667 62.8193 27.667ZM70.1055 30.6641V18.043H71.6348V19.5547H71.7666C71.96 19.2031 72.2031 18.9043 72.4961 18.6582C72.7891 18.4062 73.123 18.2129 73.498 18.0781C73.873 17.9434 74.2803 17.876 74.7197 17.876C75.5225 17.876 76.2197 18.0781 76.8115 18.4824C77.4092 18.8867 77.8721 19.4551 78.2002 20.1875C78.5283 20.9199 78.6924 21.7783 78.6924 22.7627V22.7803C78.6924 23.7705 78.5283 24.6318 78.2002 25.3643C77.8721 26.0908 77.4092 26.6562 76.8115 27.0605C76.2197 27.4648 75.5225 27.667 74.7197 27.667C74.2861 27.667 73.876 27.5996 73.4893 27.4648C73.1084 27.3242 72.7686 27.1309 72.4697 26.8848C72.1768 26.6387 71.9424 26.3457 71.7666 26.0059H71.6348V30.6641H70.1055ZM74.3682 26.3135C74.9482 26.3135 75.4434 26.1729 75.8535 25.8916C76.2637 25.6045 76.5771 25.1973 76.7939 24.6699C77.0166 24.1426 77.1279 23.5127 77.1279 22.7803V22.7627C77.1279 22.0244 77.0166 21.3916 76.7939 20.8643C76.5771 20.3369 76.2637 19.9326 75.8535 19.6514C75.4434 19.3701 74.9482 19.2295 74.3682 19.2295C73.7998 19.2295 73.3076 19.373 72.8916 19.6602C72.4756 19.9473 72.1562 20.3545 71.9336 20.8818C71.7109 21.4033 71.5996 22.0303 71.5996 22.7627V22.7803C71.5996 23.501 71.7109 24.1279 71.9336 24.6611C72.1562 25.1885 72.4756 25.5957 72.8916 25.8828C73.3076 26.1699 73.7998 26.3135 74.3682 26.3135ZM89.3975 27.5791C88.4307 27.5791 87.7275 27.3828 87.2881 26.9902C86.8545 26.5918 86.6377 25.9443 86.6377 25.0479V19.3086H85.1523V18.043H86.6377V15.5908H88.2197V18.043H90.2764V19.3086H88.2197V24.6787C88.2197 25.2295 88.3252 25.625 88.5361 25.8652C88.7471 26.1055 89.0957 26.2256 89.582 26.2256C89.7168 26.2256 89.8311 26.2227 89.9248 26.2168C90.0244 26.2109 90.1416 26.2021 90.2764 26.1904V27.4912C90.1357 27.5146 89.9922 27.5352 89.8457 27.5527C89.6992 27.5703 89.5498 27.5791 89.3975 27.5791ZM96.2793 27.667C95.3887 27.667 94.6152 27.4707 93.959 27.0781C93.3086 26.6797 92.8047 26.1143 92.4473 25.3818C92.0957 24.6494 91.9199 23.7822 91.9199 22.7803V22.7627C91.9199 21.749 92.0957 20.8789 92.4473 20.1523C92.8047 19.4199 93.3086 18.8574 93.959 18.4648C94.6152 18.0723 95.3887 17.876 96.2793 17.876C97.1816 17.876 97.958 18.0723 98.6084 18.4648C99.2588 18.8574 99.7598 19.4199 100.111 20.1523C100.469 20.8789 100.647 21.749 100.647 22.7627V22.7803C100.647 23.7881 100.469 24.6582 100.111 25.3906C99.7598 26.1172 99.2588 26.6797 98.6084 27.0781C97.958 27.4707 97.1816 27.667 96.2793 27.667ZM96.2793 26.3135C96.877 26.3135 97.3838 26.1729 97.7998 25.8916C98.2158 25.6104 98.5322 25.209 98.749 24.6875C98.9717 24.1602 99.083 23.5244 99.083 22.7803V22.7627C99.083 22.0127 98.9717 21.374 98.749 20.8467C98.5322 20.3193 98.2158 19.918 97.7998 19.6426C97.3838 19.3672 96.877 19.2295 96.2793 19.2295C95.6875 19.2295 95.1836 19.3672 94.7676 19.6426C94.3516 19.918 94.0322 20.3193 93.8096 20.8467C93.5928 21.374 93.4844 22.0127 93.4844 22.7627V22.7803C93.4844 23.5244 93.5928 24.1602 93.8096 24.6875C94.0322 25.209 94.3516 25.6104 94.7676 25.8916C95.1836 26.1729 95.6875 26.3135 96.2793 26.3135ZM107.986 27.5V18.043H109.516V19.4492H109.647C109.829 18.9512 110.134 18.5645 110.562 18.2891C110.995 18.0137 111.528 17.876 112.161 17.876C112.308 17.876 112.451 17.8848 112.592 17.9023C112.738 17.9141 112.847 17.9258 112.917 17.9375V19.4229C112.765 19.3936 112.612 19.373 112.46 19.3613C112.313 19.3438 112.155 19.335 111.985 19.335C111.505 19.335 111.077 19.4316 110.702 19.625C110.333 19.8125 110.043 20.0791 109.832 20.4248C109.621 20.7705 109.516 21.1748 109.516 21.6377V27.5H107.986ZM118.384 27.667C117.481 27.667 116.708 27.4678 116.063 27.0693C115.419 26.6709 114.921 26.1084 114.569 25.3818C114.224 24.6553 114.051 23.7969 114.051 22.8066V22.7979C114.051 21.8193 114.224 20.9609 114.569 20.2227C114.921 19.4844 115.413 18.9102 116.046 18.5C116.685 18.084 117.432 17.876 118.287 17.876C119.148 17.876 119.887 18.0752 120.502 18.4736C121.123 18.8662 121.598 19.4199 121.926 20.1348C122.26 20.8438 122.427 21.6699 122.427 22.6133V23.2109H114.842V21.9893H121.645L120.889 23.1055V22.499C120.889 21.7549 120.777 21.1426 120.555 20.6621C120.332 20.1816 120.024 19.8242 119.632 19.5898C119.239 19.3555 118.788 19.2383 118.278 19.2383C117.769 19.2383 117.314 19.3613 116.916 19.6074C116.518 19.8535 116.201 20.2197 115.967 20.7061C115.732 21.1924 115.615 21.79 115.615 22.499V23.1055C115.615 23.7793 115.729 24.3535 115.958 24.8281C116.187 25.3027 116.509 25.6689 116.925 25.9268C117.347 26.1787 117.845 26.3047 118.419 26.3047C118.847 26.3047 119.219 26.2461 119.535 26.1289C119.852 26.0117 120.112 25.8623 120.317 25.6807C120.522 25.499 120.666 25.3115 120.748 25.1182L120.783 25.0391H122.312L122.295 25.1094C122.213 25.4375 122.066 25.7539 121.855 26.0586C121.65 26.3574 121.381 26.6299 121.047 26.876C120.719 27.1162 120.332 27.3096 119.887 27.4561C119.441 27.5967 118.94 27.667 118.384 27.667ZM128.676 30.8398C127.914 30.8398 127.249 30.7314 126.681 30.5146C126.112 30.3037 125.658 30.002 125.318 29.6094C124.984 29.2227 124.776 28.7715 124.694 28.2559L124.703 28.2471H126.285L126.294 28.2559C126.382 28.6133 126.631 28.9062 127.041 29.1348C127.451 29.3691 127.996 29.4863 128.676 29.4863C129.52 29.4863 130.179 29.293 130.653 28.9062C131.134 28.5195 131.374 27.9775 131.374 27.2803V25.3994H131.233C131.034 25.7451 130.785 26.041 130.486 26.2871C130.188 26.5332 129.851 26.7207 129.476 26.8496C129.101 26.9727 128.696 27.0342 128.263 27.0342C127.454 27.0342 126.751 26.8408 126.153 26.4541C125.562 26.0615 125.104 25.5225 124.782 24.8369C124.46 24.1514 124.299 23.3633 124.299 22.4727V22.4551C124.299 21.5703 124.46 20.7852 124.782 20.0996C125.11 19.4082 125.573 18.8662 126.171 18.4736C126.769 18.0752 127.478 17.876 128.298 17.876C128.743 17.876 129.153 17.9463 129.528 18.0869C129.903 18.2275 130.234 18.4268 130.521 18.6846C130.814 18.9424 131.058 19.25 131.251 19.6074H131.356V18.043H132.886V27.3594C132.886 28.0625 132.713 28.6748 132.367 29.1963C132.027 29.7178 131.541 30.1221 130.908 30.4092C130.275 30.6963 129.531 30.8398 128.676 30.8398ZM128.597 25.6807C129.183 25.6807 129.684 25.5459 130.1 25.2764C130.516 25.001 130.835 24.623 131.058 24.1426C131.286 23.6621 131.4 23.1055 131.4 22.4727V22.4551C131.4 21.8281 131.286 21.2715 131.058 20.7852C130.835 20.2988 130.516 19.918 130.1 19.6426C129.684 19.3672 129.183 19.2295 128.597 19.2295C128.017 19.2295 127.521 19.3672 127.111 19.6426C126.707 19.918 126.396 20.2988 126.18 20.7852C125.969 21.2715 125.863 21.8281 125.863 22.4551V22.4727C125.863 23.1055 125.969 23.6621 126.18 24.1426C126.396 24.623 126.707 25.001 127.111 25.2764C127.521 25.5459 128.017 25.6807 128.597 25.6807ZM135.725 27.5V18.043H137.254V27.5H135.725ZM136.498 16.2236C136.211 16.2236 135.965 16.1211 135.76 15.916C135.555 15.7051 135.452 15.459 135.452 15.1777C135.452 14.8848 135.555 14.6357 135.76 14.4307C135.965 14.2256 136.211 14.123 136.498 14.123C136.791 14.123 137.04 14.2256 137.245 14.4307C137.45 14.6357 137.553 14.8848 137.553 15.1777C137.553 15.459 137.45 15.7051 137.245 15.916C137.04 16.1211 136.791 16.2236 136.498 16.2236ZM143.354 27.667C142.65 27.667 142.029 27.5615 141.49 27.3506C140.951 27.1338 140.518 26.832 140.189 26.4453C139.867 26.0527 139.677 25.5957 139.618 25.0742H141.183C141.312 25.4727 141.561 25.792 141.93 26.0322C142.305 26.2725 142.797 26.3926 143.406 26.3926C143.828 26.3926 144.2 26.3311 144.522 26.208C144.851 26.0791 145.105 25.9062 145.287 25.6895C145.475 25.4727 145.568 25.2207 145.568 24.9336V24.916C145.568 24.5938 145.439 24.3213 145.182 24.0986C144.93 23.8701 144.514 23.6855 143.934 23.5449L142.466 23.1934C141.874 23.0527 141.388 22.8711 141.007 22.6484C140.626 22.4199 140.345 22.1416 140.163 21.8135C139.981 21.4795 139.891 21.0869 139.891 20.6357V20.627C139.891 20.0996 140.043 19.6279 140.348 19.2119C140.658 18.7959 141.077 18.4707 141.604 18.2363C142.138 17.9961 142.738 17.876 143.406 17.876C144.068 17.876 144.654 17.9814 145.164 18.1924C145.68 18.3975 146.093 18.6934 146.403 19.0801C146.72 19.4609 146.91 19.9062 146.975 20.416V20.4248H145.48H145.472C145.378 20.0439 145.152 19.7363 144.795 19.502C144.438 19.2676 143.972 19.1504 143.397 19.1504C143.022 19.1504 142.688 19.2119 142.396 19.335C142.108 19.4521 141.88 19.6162 141.71 19.8271C141.54 20.0322 141.455 20.2754 141.455 20.5566V20.5742C141.455 20.7852 141.511 20.9727 141.622 21.1367C141.733 21.3008 141.903 21.4443 142.132 21.5674C142.366 21.6904 142.668 21.7988 143.037 21.8926L144.496 22.2441C145.387 22.4609 146.049 22.7715 146.482 23.1758C146.916 23.5801 147.133 24.1221 147.133 24.8018V24.8193C147.133 25.376 146.966 25.8711 146.632 26.3047C146.304 26.7324 145.853 27.0664 145.278 27.3066C144.71 27.5469 144.068 27.667 143.354 27.667ZM152.749 27.5791C151.782 27.5791 151.079 27.3828 150.64 26.9902C150.206 26.5918 149.989 25.9443 149.989 25.0479V19.3086H148.504V18.043H149.989V15.5908H151.571V18.043H153.628V19.3086H151.571V24.6787C151.571 25.2295 151.677 25.625 151.888 25.8652C152.099 26.1055 152.447 26.2256 152.934 26.2256C153.068 26.2256 153.183 26.2227 153.276 26.2168C153.376 26.2109 153.493 26.2021 153.628 26.1904V27.4912C153.487 27.5146 153.344 27.5352 153.197 27.5527C153.051 27.5703 152.901 27.5791 152.749 27.5791ZM159.604 27.667C158.702 27.667 157.929 27.4678 157.284 27.0693C156.64 26.6709 156.142 26.1084 155.79 25.3818C155.444 24.6553 155.271 23.7969 155.271 22.8066V22.7979C155.271 21.8193 155.444 20.9609 155.79 20.2227C156.142 19.4844 156.634 18.9102 157.267 18.5C157.905 18.084 158.652 17.876 159.508 17.876C160.369 17.876 161.107 18.0752 161.723 18.4736C162.344 18.8662 162.818 19.4199 163.146 20.1348C163.48 20.8438 163.647 21.6699 163.647 22.6133V23.2109H156.062V21.9893H162.865L162.109 23.1055V22.499C162.109 21.7549 161.998 21.1426 161.775 20.6621C161.553 20.1816 161.245 19.8242 160.853 19.5898C160.46 19.3555 160.009 19.2383 159.499 19.2383C158.989 19.2383 158.535 19.3613 158.137 19.6074C157.738 19.8535 157.422 20.2197 157.188 20.7061C156.953 21.1924 156.836 21.79 156.836 22.499V23.1055C156.836 23.7793 156.95 24.3535 157.179 24.8281C157.407 25.3027 157.729 25.6689 158.146 25.9268C158.567 26.1787 159.065 26.3047 159.64 26.3047C160.067 26.3047 160.439 26.2461 160.756 26.1289C161.072 26.0117 161.333 25.8623 161.538 25.6807C161.743 25.499 161.887 25.3115 161.969 25.1182L162.004 25.0391H163.533L163.516 25.1094C163.434 25.4375 163.287 25.7539 163.076 26.0586C162.871 26.3574 162.602 26.6299 162.268 26.876C161.939 27.1162 161.553 27.3096 161.107 27.4561C160.662 27.5967 160.161 27.667 159.604 27.667ZM165.994 27.5V18.043H167.523V19.4492H167.655C167.837 18.9512 168.142 18.5645 168.569 18.2891C169.003 18.0137 169.536 17.876 170.169 17.876C170.315 17.876 170.459 17.8848 170.6 17.9023C170.746 17.9141 170.854 17.9258 170.925 17.9375V19.4229C170.772 19.3936 170.62 19.373 170.468 19.3613C170.321 19.3438 170.163 19.335 169.993 19.335C169.513 19.335 169.085 19.4316 168.71 19.625C168.341 19.8125 168.051 20.0791 167.84 20.4248C167.629 20.7705 167.523 21.1748 167.523 21.6377V27.5H165.994Z" fill="white"/>
<defs>
<linearGradient id="paint0_linear_1107_53615" x1="94.5767" y1="1.17778e-08" x2="94.5767" y2="42" gradientUnits="userSpaceOnUse">
<stop stop-color="#FFC201"/>
<stop offset="0.53" stop-color="#FF8514"/>
<stop offset="1" stop-color="#FFF6A0" stop-opacity="0.25"/>
</linearGradient>
</defs>
</svg>
